<svg width="48" height="48" viewBox="0 0 48 48" fill="none" xmlns="http://www.w3.org/2000/svg">
<rect width="48" height="48" rx="24" fill="black"/>
<path d="M22.9844 16.6313C23.1689 16.6313 23.3125 16.4878 23.3433 16.3135C23.5791 14.6934 23.5688 14.7036 25.312 14.355C25.4966 14.314 25.6299 14.1909 25.6299 13.9961C25.6299 13.8013 25.4863 13.668 25.3018 13.6372C23.5688 13.3911 23.5688 13.3809 23.3433 11.689C23.3125 11.5044 23.1689 11.3608 22.9844 11.3608C22.7896 11.3608 22.6562 11.5044 22.6255 11.7095C22.4204 13.2988 22.4102 13.2886 20.6567 13.6372C20.4619 13.6782 20.3389 13.8013 20.3389 13.9961C20.3389 14.1909 20.4619 14.314 20.6875 14.355C22.3794 14.6421 22.3896 14.6523 22.6255 16.3032C22.6562 16.4878 22.7896 16.6313 22.9844 16.6313Z" fill="white"/>
<path d="M17.9702 24.291C18.2573 24.291 18.5034 24.0757 18.5444 23.7783C18.8828 21.1636 18.9033 21.1123 21.7231 20.6304C22.0103 20.5791 22.2153 20.3433 22.2153 20.0562C22.2153 19.7588 22 19.5127 21.7026 19.4819C18.9341 19.1128 18.8828 19.0513 18.5444 16.334C18.5034 16.0264 18.2676 15.811 17.9702 15.811C17.6626 15.811 17.4268 16.0264 17.396 16.3545C17.0781 18.9487 17.0269 18.9897 14.2173 19.4819C13.9199 19.5332 13.7148 19.7588 13.7148 20.0562C13.7148 20.3638 13.9199 20.5791 14.2788 20.6304C17.0063 21.02 17.0781 21.1226 17.396 23.7578C17.4268 24.0757 17.6626 24.291 17.9702 24.291Z" fill="white"/>
<path d="M25.6914 35.7754C26.2349 35.7754 26.6655 35.3857 26.7476 34.832C27.5166 29.5615 28.2549 28.8027 33.3306 28.2183C33.8945 28.1567 34.3149 27.7056 34.3149 27.1519C34.3149 26.6187 33.915 26.1777 33.3408 26.0854C28.2754 25.3779 27.6602 24.7524 26.7476 19.4819C26.645 18.9282 26.2246 18.5386 25.6914 18.5386C25.1582 18.5386 24.7275 18.9282 24.6455 19.4819C23.8662 24.7524 23.1382 25.5112 18.0522 26.0854C17.4883 26.147 17.0781 26.5981 17.0781 27.1519C17.0781 27.6953 17.478 28.1362 18.042 28.2183C23.1177 28.9463 23.7227 29.5615 24.6455 34.832C24.7378 35.3857 25.1685 35.7754 25.6914 35.7754Z" fill="white"/>
</svg>
