<svg width="48" height="48" viewBox="0 0 48 48" fill="none" xmlns="http://www.w3.org/2000/svg">
<rect width="48" height="48" rx="24" fill="black"/>
<path d="M15.8327 17.2H12.5927V32H15.8327V29.16L18.0327 26.28L21.2927 32H25.0327L20.1527 23.52L24.9927 17.2H21.1727L15.8327 24.28V17.2ZM27.9124 20.44C28.8724 20.44 29.6524 19.66 29.6524 18.68C29.6524 17.7 28.8724 16.94 27.9124 16.94C26.9324 16.94 26.1524 17.7 26.1524 18.68C26.1524 19.66 26.9324 20.44 27.9124 20.44ZM26.3924 32H29.4724V22H26.3924V32ZM35.823 32V24.56H37.723V22H35.823V18.9H32.743V22H30.843V24.56H32.743V32H35.823Z" fill="white"/>
</svg>
