<svg width="48" height="48" viewBox="0 0 48 48" fill="none" xmlns="http://www.w3.org/2000/svg">
<rect width="48" height="48" rx="24" fill="black"/>
<path d="M24 34.9272C24.7383 34.9272 25.3433 34.3838 25.4458 33.6147C26.4609 26.7651 27.394 25.8115 33.9771 25.063C34.7358 24.9707 35.3203 24.335 35.3203 23.5967C35.3203 22.8481 34.7461 22.2329 33.9873 22.1201C27.4453 21.2075 26.6353 20.4077 25.4458 13.5684C25.3125 12.8096 24.728 12.2661 24 12.2661C23.2515 12.2661 22.6567 12.8096 22.5337 13.5786C21.5391 20.418 20.606 21.3716 14.0332 22.1201C13.2539 22.2227 12.6797 22.8379 12.6797 23.5967C12.6797 24.335 13.2334 24.9502 14.0127 25.063C20.5649 25.9961 21.3647 26.7856 22.5337 33.625C22.6875 34.394 23.2822 34.9272 24 34.9272Z" fill="white"/>
</svg>
