<svg width="80" height="16" viewBox="0 0 80 16" fill="none" xmlns="http://www.w3.org/2000/svg">
<path d="M55.9777 3.48273C54.7472 3.48273 53.8685 3.90332 53.4372 4.69884L53.2054 5.12748V3.69034H51.2009V12.4465H53.3092V7.23754C53.3092 5.9928 53.9848 5.27871 55.1642 5.27871C56.2882 5.27871 56.9325 5.97311 56.9325 7.18564V12.4465H59.0408V6.80891C59.0408 4.72748 57.8953 3.48273 55.9777 3.48273ZM45.7566 3.48273C43.2698 3.48273 41.7244 5.03352 41.7244 7.53195V8.76148C41.7244 11.1623 43.2833 12.655 45.7915 12.655C47.4685 12.655 48.6443 12.0393 49.3844 10.7758L48.077 10.025C47.5302 10.7543 46.6578 11.2053 45.7915 11.2053C44.5217 11.2053 43.7629 10.4214 43.7629 9.10779V8.75969H49.6502V7.30645C49.6502 4.97983 48.1217 3.48273 45.7566 3.48273ZM47.7325 7.34314H43.7629V7.13374C43.7629 5.69123 44.4707 4.8966 45.7566 4.8966C46.9942 4.8966 47.7325 5.6805 47.7325 6.99414V7.34314ZM79.9687 2.24873V0.57356H72.6801V2.24873H75.2358V10.7722H72.6801V12.4465H79.9687V10.7722H77.413V2.24873H79.9687ZM24.698 0.331055C21.4417 0.331055 19.4184 2.36059 19.4184 5.62681V7.39325C19.4184 10.6603 21.4408 12.689 24.698 12.689C27.9553 12.689 29.9777 10.6603 29.9777 7.39325V5.62681C29.9768 2.36059 27.9535 0.331055 24.698 0.331055ZM27.7996 7.51405C27.7996 9.68318 26.6694 10.9279 24.698 10.9279C22.7267 10.9279 21.5956 9.68318 21.5956 7.51405V5.506C21.5956 3.33687 22.7258 2.09213 24.6971 2.09213C26.6685 2.09213 27.7987 3.33687 27.7987 5.506L27.7996 7.51405ZM36.5969 3.48721C35.4909 3.48721 34.5325 3.94448 34.034 4.71226L33.8068 5.06126V3.69034H31.8032V15.4594H33.9106V11.1972L34.137 11.5319C34.6112 12.2344 35.5374 12.655 36.6139 12.655C38.4314 12.655 40.2649 11.4666 40.2649 8.81338V7.32255C40.2649 5.41204 39.1347 3.48273 36.596 3.48273L36.5969 3.48721ZM38.1575 8.71316C38.1575 10.1243 37.3343 11.0013 36.0099 11.0013C34.775 11.0013 33.9123 10.0751 33.9123 8.74806V7.43262C33.9123 6.08497 34.7821 5.14448 36.0269 5.14448C37.3423 5.14448 38.1593 6.02144 38.1593 7.43262L38.1575 8.71316ZM64.8663 0.578035L60.6112 12.4465H62.7499L63.5642 9.90153H68.4546L68.4627 9.92658L69.268 12.4465H71.4094L67.1508 0.57356L64.8663 0.578035ZM64.0904 8.23083L66.009 2.22188L67.9088 8.22367L64.0904 8.23083ZM13.9426 6.52184C14.1117 6.01245 14.1703 5.47283 14.1142 4.93902C14.0582 4.40521 13.8888 3.88951 13.6176 3.42636C12.7923 1.99003 11.1338 1.25115 9.51414 1.59826C9.06564 1.09938 8.49378 0.727298 7.85597 0.519378C7.21817 0.311458 6.53688 0.275022 5.88053 0.413728C5.22418 0.552435 4.61589 0.861401 4.11673 1.3096C3.61758 1.75779 3.24514 2.32944 3.03683 2.96712C2.51091 3.07498 2.01407 3.29385 1.57951 3.60911C1.14495 3.92436 0.782684 4.32874 0.516925 4.79522C-0.317259 6.22922 -0.127907 8.03817 0.985113 9.26842C0.815339 9.77758 0.756254 10.3171 0.811811 10.8509C0.867367 11.3848 1.03629 11.9006 1.30727 12.3639C2.13339 13.8007 3.79299 14.5395 5.41366 14.192C5.76999 14.5932 6.20782 14.9138 6.69792 15.1323C7.18802 15.3509 7.71911 15.4624 8.25572 15.4593C9.91586 15.4609 11.3868 14.3891 11.8938 12.8082C12.4197 12.7002 12.9164 12.4813 13.351 12.166C13.7855 11.8508 14.1478 11.4465 14.4137 10.9801C15.2379 9.54868 15.0477 7.74949 13.9426 6.52184ZM8.25563 14.4693C7.59296 14.4703 6.95106 14.2381 6.44248 13.8133L6.53196 13.7625L9.54395 12.0239C9.61891 11.9799 9.68113 11.9172 9.72453 11.8419C9.76792 11.7666 9.79099 11.6814 9.79146 11.5945V7.34788L11.0648 8.08452C11.0711 8.08772 11.0765 8.09235 11.0807 8.09804C11.0848 8.10373 11.0876 8.11032 11.0887 8.11728V11.6363C11.0854 13.1996 9.81894 14.466 8.25563 14.4694V14.4693ZM2.16605 11.8688C1.83372 11.295 1.7144 10.6224 1.82905 9.96927L1.91854 10.0229L4.93348 11.7614C5.00809 11.8052 5.09302 11.8283 5.17952 11.8283C5.26603 11.8283 5.35096 11.8052 5.42556 11.7614L9.10851 9.63826V11.1085C9.10815 11.1161 9.1061 11.1235 9.10249 11.1302C9.09888 11.1369 9.09382 11.1427 9.08767 11.1471L6.03693 12.9067C4.68122 13.6876 2.94922 13.2233 2.16605 11.8688ZM1.37277 5.30824C1.70741 4.73068 2.23561 4.29016 2.86386 4.06466V7.64318C2.86273 7.72965 2.88481 7.81484 2.92783 7.88986C2.97085 7.96488 3.03322 8.02697 3.10842 8.06967L6.77348 10.184L5.50011 10.9206C5.49322 10.9243 5.48554 10.9262 5.47773 10.9262C5.46993 10.9262 5.46225 10.9243 5.45536 10.9206L2.41061 9.16408C1.0576 8.37991 0.593614 6.64918 1.37277 5.29329V5.30824ZM11.8342 7.73866L8.15729 5.60345L9.42762 4.86985C9.43451 4.86619 9.44219 4.86428 9.44999 4.86428C9.45779 4.86428 9.46547 4.86619 9.47235 4.86985L12.5172 6.62931C12.9827 6.89796 13.3622 7.29349 13.6113 7.76971C13.8605 8.24594 13.9691 8.78322 13.9244 9.31882C13.8796 9.85443 13.6835 10.3662 13.3588 10.7945C13.0341 11.2229 12.5943 11.55 12.0907 11.7377V8.15906C12.0881 8.07276 12.063 7.98861 12.0181 7.91489C11.9731 7.84117 11.9098 7.78041 11.8342 7.73857V7.73866ZM13.1016 5.83307L13.0121 5.77938L10.0032 4.02591C9.92813 3.98187 9.8427 3.95865 9.75568 3.95865C9.66866 3.95865 9.5832 3.98187 9.50815 4.02591L5.82816 6.14904V4.6788C5.8274 4.67134 5.82866 4.66382 5.83181 4.65702C5.83496 4.65021 5.83988 4.64439 5.84606 4.64014L8.8908 2.88354C9.35746 2.6147 9.89103 2.4843 10.4291 2.50758C10.9671 2.53086 11.4874 2.70686 11.9291 3.01499C12.3708 3.32313 12.7157 3.75066 12.9233 4.24759C13.1309 4.74452 13.1928 5.29029 13.1016 5.82108V5.83298V5.83307ZM5.1333 8.43942L3.85993 7.70582C3.85356 7.70197 3.84813 7.69677 3.844 7.69058C3.83987 7.6844 3.83714 7.67738 3.83602 7.67003V4.15996C3.83674 3.62151 3.99073 3.09439 4.27998 2.64023C4.56923 2.18606 4.98179 1.82362 5.46942 1.59529C5.95706 1.36695 6.49963 1.28215 7.03368 1.3508C7.56774 1.41945 8.07122 1.63871 8.48525 1.98296L8.39577 2.0337L5.38377 3.77231C5.30882 3.81628 5.24659 3.87899 5.20319 3.95428C5.1598 4.02957 5.13673 4.11485 5.13626 4.20175L5.1333 8.43942ZM5.82521 6.94833L7.46539 6.003L9.10851 6.94833V8.83897L7.47129 9.78439L5.82825 8.83897L5.8253 6.94833H5.82521Z" fill="black" fill-opacity="0.32"/>
</svg>