<svg width="16" height="16" viewBox="0 0 16 16" fill="none" xmlns="http://www.w3.org/2000/svg">
<rect width="16" height="16" rx="4" fill="black" fill-opacity="0.4"/>
<path fill-rule="evenodd" clip-rule="evenodd" d="M4 4.16667C4 3.79848 4.29848 3.5 4.66667 3.5C5.03486 3.5 5.33333 3.79848 5.33333 4.16667V4.83333C5.33333 5.56971 5.93029 6.16667 6.66667 6.16667C7.40305 6.16667 8 5.56971 8 4.83333V4.16667C8 3.79848 8.29848 3.5 8.66667 3.5C9.03486 3.5 9.33333 3.79848 9.33333 4.16667V4.83333C9.33333 6.30609 8.13943 7.5 6.66667 7.5C5.19391 7.5 4 6.30609 4 4.83333V4.16667ZM12 4.16667V11.8333C12 12.2015 11.7015 12.5 11.3333 12.5C10.9651 12.5 10.6667 12.2015 10.6667 11.8333V4.16667C10.6667 3.79848 10.9651 3.5 11.3333 3.5C11.7015 3.5 12 3.79848 12 4.16667ZM4.66667 12.5C4.29848 12.5 4 12.2015 4 11.8333V11.1667C4 9.69391 5.19391 8.5 6.66667 8.5C8.13943 8.5 9.33333 9.69391 9.33333 11.1667V11.8333C9.33333 12.2015 9.03486 12.5 8.66667 12.5C8.29848 12.5 8 12.2015 8 11.8333V11.1667C8 10.4303 7.40305 9.83333 6.66667 9.83333C5.93029 9.83333 5.33333 10.4303 5.33333 11.1667V11.8333C5.33333 12.2015 5.03486 12.5 4.66667 12.5Z" fill="white"/>
</svg>
