<svg width="48" height="48" viewBox="0 0 48 48" fill="none" xmlns="http://www.w3.org/2000/svg">
<rect width="48" height="48" rx="12" fill="black"/>
<path fill-rule="evenodd" clip-rule="evenodd" d="M12 12.5C12 11.3954 12.8954 10.5 14 10.5C15.1046 10.5 16 11.3954 16 12.5V14.5C16 16.7091 17.7909 18.5 20 18.5C22.2091 18.5 24 16.7091 24 14.5V12.5C24 11.3954 24.8954 10.5 26 10.5C27.1046 10.5 28 11.3954 28 12.5V14.5C28 18.9183 24.4183 22.5 20 22.5C15.5817 22.5 12 18.9183 12 14.5V12.5ZM36 12.5V35.5C36 36.6046 35.1046 37.5 34 37.5C32.8954 37.5 32 36.6046 32 35.5V12.5C32 11.3954 32.8954 10.5 34 10.5C35.1046 10.5 36 11.3954 36 12.5ZM14 37.5C12.8954 37.5 12 36.6046 12 35.5V33.5C12 29.0817 15.5817 25.5 20 25.5C24.4183 25.5 28 29.0817 28 33.5V35.5C28 36.6046 27.1046 37.5 26 37.5C24.8954 37.5 24 36.6046 24 35.5V33.5C24 31.2909 22.2091 29.5 20 29.5C17.7909 29.5 16 31.2909 16 33.5V35.5C16 36.6046 15.1046 37.5 14 37.5Z" fill="white"/>
</svg>
