<svg width="86" height="24" viewBox="0 0 86 24" fill="none" xmlns="http://www.w3.org/2000/svg">
<path d="M11.25 3.24951C11.25 3.93987 10.6904 4.49951 10 4.49951C9.30964 4.49951 8.75 3.93987 8.75 3.24951C8.75 2.55916 9.30964 1.99951 10 1.99951C10.6904 1.99951 11.25 2.55916 11.25 3.24951Z" fill="white"/>
<path fill-rule="evenodd" clip-rule="evenodd" d="M10 16.9995C12.7614 16.9995 15 14.7609 15 11.9995C15 9.23809 12.7614 6.99951 10 6.99951C7.23858 6.99951 5 9.23809 5 11.9995C5 14.7609 7.23858 16.9995 10 16.9995ZM10 14.4995C11.3807 14.4995 12.5 13.3802 12.5 11.9995C12.5 10.6188 11.3807 9.49951 10 9.49951C8.61929 9.49951 7.5 10.6188 7.5 11.9995C7.5 13.3802 8.61929 14.4995 10 14.4995Z" fill="white"/>
<path d="M16.25 6.99951C16.9404 6.99951 17.5 6.43987 17.5 5.74951C17.5 5.05916 16.9404 4.49951 16.25 4.49951C15.5596 4.49951 15 5.05916 15 5.74951C15 6.43987 15.5596 6.99951 16.25 6.99951Z" fill="white"/>
<path d="M5 5.74951C5 6.43987 4.44036 6.99951 3.75 6.99951C3.05964 6.99951 2.5 6.43987 2.5 5.74951C2.5 5.05916 3.05964 4.49951 3.75 4.49951C4.44036 4.49951 5 5.05916 5 5.74951Z" fill="white"/>
<path d="M10 19.4995C10.6904 19.4995 11.25 20.0592 11.25 20.7495C11.25 21.4399 10.6904 21.9995 10 21.9995C9.30964 21.9995 8.75 21.4399 8.75 20.7495C8.75 20.0592 9.30964 19.4995 10 19.4995Z" fill="white"/>
<path d="M17.5 18.2495C17.5 17.5592 16.9404 16.9995 16.25 16.9995C15.5596 16.9995 15 17.5592 15 18.2495C15 18.9399 15.5596 19.4995 16.25 19.4995C16.9404 19.4995 17.5 18.9399 17.5 18.2495Z" fill="white"/>
<path d="M3.75 16.9995C4.44036 16.9995 5 17.5592 5 18.2495C5 18.9399 4.44036 19.4995 3.75 19.4995C3.05964 19.4995 2.5 18.9399 2.5 18.2495C2.5 17.5592 3.05964 16.9995 3.75 16.9995Z" fill="white"/>
<path d="M2.5 11.9995C2.5 12.6899 1.94036 13.2495 1.25 13.2495C0.559644 13.2495 0 12.6899 0 11.9995C0 11.3092 0.559644 10.7495 1.25 10.7495C1.94036 10.7495 2.5 11.3092 2.5 11.9995Z" fill="white"/>
<path d="M18.75 13.2495C19.4404 13.2495 20 12.6899 20 11.9995C20 11.3092 19.4404 10.7495 18.75 10.7495C18.0596 10.7495 17.5 11.3092 17.5 11.9995C17.5 12.6899 18.0596 13.2495 18.75 13.2495Z" fill="white"/>
<path d="M35.218 7.786C36.802 7.786 38.134 8.506 38.548 10.054H40.978C40.6 7.372 38.278 5.626 35.272 5.626C31.312 5.626 28.702 8.47 28.702 12.466C28.702 16.516 31.276 19.198 34.966 19.198C36.748 19.198 38.242 18.496 38.962 17.488L39.106 19H41.05V11.602H34.93V13.636H38.908V13.69C38.908 15.796 37.522 17.056 35.236 17.056C32.806 17.056 31.114 15.454 31.114 12.52C31.114 9.676 32.608 7.786 35.218 7.786ZM47.1921 19.234C49.5141 19.234 51.1341 18.064 51.5121 16.12H49.4781C49.2261 16.966 48.4341 17.434 47.2281 17.434C45.7701 17.434 44.9421 16.642 44.7801 15.076L51.4761 15.058V14.392C51.4761 11.62 49.7841 9.838 47.1201 9.838C44.5101 9.838 42.6921 11.764 42.6921 14.554C42.6921 17.308 44.5461 19.234 47.1921 19.234ZM47.1381 11.638C48.4521 11.638 49.2981 12.448 49.2981 13.672H44.8341C45.0501 12.34 45.8421 11.638 47.1381 11.638ZM55.4296 19V14.212C55.4296 12.772 56.2576 11.836 57.6076 11.836C58.7416 11.836 59.4796 12.556 59.4796 14.05V19H61.6756V13.528C61.6756 11.224 60.5236 9.838 58.2916 9.838C57.0856 9.838 56.0056 10.36 55.4476 11.26L55.2676 10.108H53.2336V19H55.4296ZM64.9312 8.326C65.6512 8.326 66.2452 7.732 66.2452 6.994C66.2452 6.256 65.6512 5.68 64.9312 5.68C64.1752 5.68 63.5812 6.256 63.5812 6.994C63.5812 7.732 64.1752 8.326 64.9312 8.326ZM63.8332 19H66.0292V10.108H63.8332V19ZM73.7831 10.108V14.77C73.7831 16.462 73.1171 17.272 71.7311 17.272C70.5071 17.272 69.8411 16.588 69.8411 14.896V10.108H67.6451V15.67C67.6451 17.848 68.8511 19.234 70.9031 19.234C72.0911 19.234 73.2431 18.658 73.7831 17.812L73.9451 19H75.9791V10.108H73.7831ZM77.3875 16.3C77.3875 18.046 78.7915 19.234 81.0055 19.234C83.2015 19.234 84.7315 18.118 84.7315 16.318C84.7315 14.95 83.9755 14.266 82.4815 13.924L80.8795 13.546C80.1235 13.366 79.7275 13.042 79.7275 12.538C79.7275 11.872 80.2315 11.476 81.0955 11.476C81.9415 11.476 82.4455 11.962 82.4635 12.718H84.5515C84.5335 10.99 83.1835 9.838 81.1855 9.838C79.1335 9.838 77.6575 10.882 77.6575 12.628C77.6575 14.05 78.4315 14.806 80.0335 15.166L81.6355 15.544C82.4275 15.724 82.6615 16.048 82.6615 16.498C82.6615 17.146 82.1035 17.56 81.0775 17.56C80.0695 17.56 79.4935 17.074 79.4755 16.3H77.3875Z" fill="white"/>
</svg>
